# xmcd
#
# Track frame offsets: 
#        150
#        16635
#        33512
#        55542
#        71780
#        85772
#        106792
#        125460
#        145545
#        167055
#        179595
#        189932
#        218805
#        237342
#        251302
#        275200
#        300505
#
# Disc length: 4304 seconds
#
# Revision: 0
# Processed by: cddbd v1.5.2PL0 Copyright (c) Steve Scherf et al.
# Submitted via: ExactAudioCopy v1.0b1
#
DISCID=df10ce11
DTITLE=walter gieseking - Debussy and Ravel ,cd4
DYEAR=2001
DGENRE=Classical
TTITLE0=Suite Bergamasque: I. Prelude (Moderato - tempo rubato)
TTITLE1=Suite Bergamasque: I. Prelude (Moderato - tempo rubato)
TTITLE2=Suite Bergamasque: III. Clair de lune (Andante tres expressif)
TTITLE3=Suite Bergamasque: IV. Passepied (Allegretto ma non troppo)
TTITLE4=Valse romantique
TTITLE5=Danse (Tarentelle styrienne) 
TTITLE6=Estampes: Pagodes
TTITLE7=Estampes: Soiree dans Grenade
TTITLE8=Images: Reflets dans l'eau 
TTITLE9=Preludes Book I:  Ce qu'a vu le vent d'Ouest 
TTITLE10=Preludes Book I:  La fille aux cheveux de lin
TTITLE11=Preludes Book I:  La cathedrale engloutie
TTITLE12=Ravel: Miroirs - Noctuelles 
TTITLE13=Ravel: Miroirs - Oiseaux Tristes 
TTITLE14=Ravel: Miroirs - Une Barque Sur L'ocean
TTITLE15=Ravel: Miroirs - Alborada Del Gracioso
TTITLE16=Ravel: Miroirs - La Vallee Des Cloches
EXTD=
EXTT0=
EXTT1=
EXTT2=
EXTT3=
EXTT4=
EXTT5=
EXTT6=
EXTT7=
EXTT8=
EXTT9=
EXTT10=
EXTT11=
EXTT12=
EXTT13=
EXTT14=
EXTT15=
EXTT16=
PLAYORDER=
